<svg width="155" height="57" viewBox="0 0 155 57" fill="none" xmlns="http://www.w3.org/2000/svg">
<path d="M46.7846 25.4171L46.8058 22.2963L43.7338 22.3205L45.1378 20.0543L42.7511 18.342L40.7602 21.5553C39.7971 21.0864 38.714 20.9133 37.6254 21.0828L36.7309 21.2221C35.9891 21.3376 35.2455 21.129 34.6596 20.657C35.7162 18.276 36.0163 16.2907 36.053 14.0434C38.0209 13.7557 39.6357 12.0227 39.8389 9.79788C40.1441 6.45503 37.183 3.90458 34.2362 4.96165C33.5647 3.67464 32.5902 2.48215 31.2572 2.36043C30.2422 2.26775 28.849 2.58144 27.4375 4.27646C24.7255 2.83887 21.4899 4.83771 21.1924 8.09534C20.9996 10.2072 22.1379 12.1135 23.8645 12.8486C23.7315 13.4362 23.6096 14.0378 23.4988 14.6501C19.7491 13.0644 18.7544 13.2328 18.4363 10.8057L19.415 5.68893L16.5925 5.09911L16.0834 7.76084L13.9271 5.42614L11.8737 7.64895L14.03 9.98376L11.5714 10.5347L12.1159 13.5905L15.8985 12.7429C16.8872 15.9442 19.3691 16.2304 22.741 17.6985C22.204 19.3094 21.5076 20.8823 20.8417 22.4035C17.5867 18.3283 16.0007 17.1644 14.5088 17.5526C13.0754 17.9256 12.7012 19.5829 12.5782 20.1273C12.2181 21.7223 13.1221 25.2443 13.837 29.2167C11.7895 26.2495 10.7264 24.7245 10.177 23.9434L11.0279 19.4944L8.20538 18.9046L7.69631 21.5663L5.54007 19.2316L3.4867 21.4544L5.64293 23.7892L3.18444 24.3401L3.72893 27.396L8.24381 26.3843C8.9544 27.4003 10.2218 29.2251 12.4633 32.4781C13.0704 33.3591 14.0056 34.7168 15.1402 34.8202C15.4182 34.8456 15.7084 34.7957 16.0084 34.645C17.4167 33.9376 17.1574 31.896 17.0026 30.6761C16.636 27.7899 15.2978 22.2397 15.3738 20.8945C16.6082 21.8598 18.5484 24.3195 19.5301 25.5861C19.3612 26.0614 19.2194 26.5166 19.116 26.9464C18.4981 29.5142 19.4331 30.7114 20.3261 31.2634C21.5464 32.0175 23.3144 31.4719 24.6206 30.8774L27.3702 36.3166C27.9102 37.3848 27.2489 38.7245 26.1077 38.8301C23.2104 39.098 21.2848 42.2485 22.206 45.2167C22.3119 45.5753 21.7749 43.757 23.5139 49.6449L22.5273 54.7003L25.3474 55.3026L25.8295 52.832L27.995 55.1767L30.0483 52.9539L27.8921 50.6191L30.3507 50.0682L29.8062 47.0123L26.0221 47.8603C25.8974 47.4364 26.4461 49.3012 24.9418 44.1894C24.6143 43.1458 25.2903 42.0341 26.3114 41.9396C29.5378 41.6412 31.4443 37.8355 29.9037 34.7876L27.1863 29.4118C29.4844 27.847 31.6206 25.7123 33.1726 23.3636C34.3124 24.1788 35.7075 24.5279 37.1004 24.3113L37.9949 24.172C38.5625 24.0836 39.1263 24.184 39.6215 24.4448L42.6757 29.4358L45.086 27.6857L43.7124 25.4413L46.7846 25.4171ZM36.9702 9.53603C36.8919 10.3934 36.1848 11.0322 35.3939 10.96C34.6029 10.8878 34.0232 10.1315 34.1015 9.27409C34.1798 8.41669 34.8868 7.77788 35.6778 7.85011C36.4687 7.92232 37.0485 8.67863 36.9702 9.53603ZM25.6375 6.9333C26.4283 7.00552 27.0081 7.76183 26.9298 8.61923C26.8515 9.47663 26.1444 10.1154 25.3535 10.0432C24.5626 9.97099 23.9828 9.21469 24.0611 8.35728C24.1394 7.49988 24.8465 6.86107 25.6375 6.9333ZM26.8151 25.9327C24.4228 27.8457 22.4443 28.5359 21.7978 28.5158C21.713 27.5 23.0573 24.5855 23.493 23.5928C26.5167 16.7054 25.8772 16.7343 26.8112 12.9255C29.2779 12.0292 30.4955 9.02437 29.4368 6.50598C29.9649 5.82032 30.483 5.45359 30.9276 5.46754C31.0669 5.54976 31.4676 5.94353 31.9105 6.91469C30.6131 9.09082 31.1732 11.9722 33.171 13.3592C33.1817 14.0331 33.1605 14.7092 33.1062 15.381C32.6755 20.7087 28.5632 24.535 26.8151 25.9327Z" fill="white"/>
<path d="M78.0213 12.74V16.07H83.8533V18.41H78.0213V23H75.1053V10.4H84.6273V12.74H78.0213ZM94.6294 23L92.1994 19.49H92.0554H89.5174V23H86.6014V10.4H92.0554C93.1714 10.4 94.1374 10.586 94.9534 10.958C95.7814 11.33 96.4174 11.858 96.8614 12.542C97.3054 13.226 97.5274 14.036 97.5274 14.972C97.5274 15.908 97.2994 16.718 96.8434 17.402C96.3994 18.074 95.7634 18.59 94.9354 18.95L97.7614 23H94.6294ZM94.5754 14.972C94.5754 14.264 94.3474 13.724 93.8914 13.352C93.4354 12.968 92.7694 12.776 91.8934 12.776H89.5174V17.168H91.8934C92.7694 17.168 93.4354 16.976 93.8914 16.592C94.3474 16.208 94.5754 15.668 94.5754 14.972ZM105.94 23.216C104.632 23.216 103.45 22.934 102.394 22.37C101.35 21.806 100.528 21.032 99.9278 20.048C99.3398 19.052 99.0458 17.936 99.0458 16.7C99.0458 15.464 99.3398 14.354 99.9278 13.37C100.528 12.374 101.35 11.594 102.394 11.03C103.45 10.466 104.632 10.184 105.94 10.184C107.248 10.184 108.424 10.466 109.468 11.03C110.512 11.594 111.334 12.374 111.934 13.37C112.534 14.354 112.834 15.464 112.834 16.7C112.834 17.936 112.534 19.052 111.934 20.048C111.334 21.032 110.512 21.806 109.468 22.37C108.424 22.934 107.248 23.216 105.94 23.216ZM105.94 20.732C106.684 20.732 107.356 20.564 107.956 20.228C108.556 19.88 109.024 19.4 109.36 18.788C109.708 18.176 109.882 17.48 109.882 16.7C109.882 15.92 109.708 15.224 109.36 14.612C109.024 14 108.556 13.526 107.956 13.19C107.356 12.842 106.684 12.668 105.94 12.668C105.196 12.668 104.524 12.842 103.924 13.19C103.324 13.526 102.85 14 102.502 14.612C102.166 15.224 101.998 15.92 101.998 16.7C101.998 17.48 102.166 18.176 102.502 18.788C102.85 19.4 103.324 19.88 103.924 20.228C104.524 20.564 105.196 20.732 105.94 20.732ZM123.539 16.502H126.203V21.614C125.519 22.13 124.727 22.526 123.827 22.802C122.927 23.078 122.021 23.216 121.109 23.216C119.801 23.216 118.625 22.94 117.581 22.388C116.537 21.824 115.715 21.05 115.115 20.066C114.527 19.07 114.233 17.948 114.233 16.7C114.233 15.452 114.527 14.336 115.115 13.352C115.715 12.356 116.543 11.582 117.599 11.03C118.655 10.466 119.843 10.184 121.163 10.184C122.267 10.184 123.269 10.37 124.169 10.742C125.069 11.114 125.825 11.654 126.437 12.362L124.565 14.09C123.665 13.142 122.579 12.668 121.307 12.668C120.503 12.668 119.789 12.836 119.165 13.172C118.541 13.508 118.055 13.982 117.707 14.594C117.359 15.206 117.185 15.908 117.185 16.7C117.185 17.48 117.359 18.176 117.707 18.788C118.055 19.4 118.535 19.88 119.147 20.228C119.771 20.564 120.479 20.732 121.271 20.732C122.111 20.732 122.867 20.552 123.539 20.192V16.502ZM137.426 16.502H140.09V21.614C139.406 22.13 138.614 22.526 137.714 22.802C136.814 23.078 135.908 23.216 134.996 23.216C133.688 23.216 132.512 22.94 131.468 22.388C130.424 21.824 129.602 21.05 129.002 20.066C128.414 19.07 128.12 17.948 128.12 16.7C128.12 15.452 128.414 14.336 129.002 13.352C129.602 12.356 130.43 11.582 131.486 11.03C132.542 10.466 133.73 10.184 135.05 10.184C136.154 10.184 137.156 10.37 138.056 10.742C138.956 11.114 139.712 11.654 140.324 12.362L138.452 14.09C137.552 13.142 136.466 12.668 135.194 12.668C134.39 12.668 133.676 12.836 133.052 13.172C132.428 13.508 131.942 13.982 131.594 14.594C131.246 15.206 131.072 15.908 131.072 16.7C131.072 17.48 131.246 18.176 131.594 18.788C131.942 19.4 132.422 19.88 133.034 20.228C133.658 20.564 134.366 20.732 135.158 20.732C135.998 20.732 136.754 20.552 137.426 20.192V16.502ZM148.847 18.536V23H145.931V18.5L141.053 10.4H144.149L147.515 15.998L150.881 10.4H153.743L148.847 18.536ZM79.9488 30.47V35.835H89.3448V39.605H79.9488V47H75.2508V26.7H90.5918V30.47H79.9488ZM93.7722 26.7H98.4702V43.172H108.649V47H93.7722V26.7ZM120.765 47.348C118.658 47.348 116.754 46.8937 115.052 45.985C113.37 45.0763 112.046 43.8293 111.079 42.244C110.132 40.6393 109.658 38.8413 109.658 36.85C109.658 34.8587 110.132 33.0703 111.079 31.485C112.046 29.8803 113.37 28.6237 115.052 27.715C116.754 26.8063 118.658 26.352 120.765 26.352C122.873 26.352 124.767 26.8063 126.449 27.715C128.131 28.6237 129.456 29.8803 130.422 31.485C131.389 33.0703 131.872 34.8587 131.872 36.85C131.872 38.8413 131.389 40.6393 130.422 42.244C129.456 43.8293 128.131 45.0763 126.449 45.985C124.767 46.8937 122.873 47.348 120.765 47.348ZM120.765 43.346C121.964 43.346 123.047 43.0753 124.013 42.534C124.98 41.9733 125.734 41.2 126.275 40.214C126.836 39.228 127.116 38.1067 127.116 36.85C127.116 35.5933 126.836 34.472 126.275 33.486C125.734 32.5 124.98 31.7363 124.013 31.195C123.047 30.6343 121.964 30.354 120.765 30.354C119.567 30.354 118.484 30.6343 117.517 31.195C116.551 31.7363 115.787 32.5 115.226 33.486C114.685 34.472 114.414 35.5933 114.414 36.85C114.414 38.1067 114.685 39.228 115.226 40.214C115.787 41.2 116.551 41.9733 117.517 42.534C118.484 43.0753 119.567 43.346 120.765 43.346ZM144.19 26.7C145.988 26.7 147.544 26.9997 148.859 27.599C150.193 28.1983 151.218 29.049 151.933 30.151C152.648 31.253 153.006 32.558 153.006 34.066C153.006 35.5547 152.648 36.8597 151.933 37.981C151.218 39.083 150.193 39.9337 148.859 40.533C147.544 41.113 145.988 41.403 144.19 41.403H140.101V47H135.403V26.7H144.19ZM143.929 37.575C145.34 37.575 146.413 37.2753 147.148 36.676C147.883 36.0573 148.25 35.1873 148.25 34.066C148.25 32.9253 147.883 32.0553 147.148 31.456C146.413 30.8373 145.34 30.528 143.929 30.528H140.101V37.575H143.929Z" fill="white"/>
</svg>
